<svg xmlns="http://www.w3.org/2000/svg" version="1.1" xmlns:xlink="http://www.w3.org/1999/xlink" xmlns:svgjs="http://svgjs.dev/svgjs" width="1000" height="1000" viewBox="0 0 1000 1000"><rect width="1000" height="1000" fill="#ffffff"></rect><g transform="matrix(0.7,0,0,0.7,149.57575757575756,300.29837148241563)"><svg viewBox="0 0 396 226" data-background-color="#046380" preserveAspectRatio="xMidYMid meet" height="570" width="1000" xmlns="http://www.w3.org/2000/svg" xmlns:xlink="http://www.w3.org/1999/xlink"><g id="tight-bounds" transform="matrix(1,0,0,1,0.2400000000000091,0.11420562650144461)"><svg viewBox="0 0 395.52 225.7715887469971" height="225.7715887469971" width="395.52"><g><svg viewBox="0 0 397.4975999999999 226.90044669073205" height="225.7715887469971" width="395.52"><g><rect width="397.4975999999999" height="4.513331602032203" x="0" y="127.13084023952601" fill="#000000" opacity="1" stroke-width="0" stroke="transparent" fill-opacity="1" class="rect-r$-0" data-fill-palette-color="secondary" rx="1%" id="r$-0" data-palette-color="#ffffff"></rect></g><g transform="matrix(1,0,0,1,0.9887999999999693,143.45917603535977)"><svg viewBox="0 0 395.52 83.44127065537225" height="83.44127065537225" width="395.52"><g id="textblocktransform"><svg viewBox="0 0 395.52 83.44127065537225" height="83.44127065537225" width="395.52" id="textblock"><g><svg viewBox="0 0 395.52 50.04746011369888" height="50.04746011369888" width="395.52"><g transform="matrix(1,0,0,1,0,0)"><svg width="395.52" viewBox="1.85 -34.1 272.63 34.5" height="50.04746011369888" data-palette-color="#ffffff"><path d="M1.85 0.15L1.85 0.15Q1.85-0.85 1.93-1.78 2-2.7 2.2-3.3L2.2-3.3Q3.55-3.4 4.28-3.83 5-4.25 5.28-5.38 5.55-6.5 5.55-8.7L5.55-8.7 5.55-25.3Q5.55-27.4 5.28-28.45 5-29.5 4.28-29.93 3.55-30.35 2.15-30.5L2.15-30.5Q2-31.15 1.93-32.18 1.85-33.2 1.85-33.95L1.85-33.95Q2.95-33.9 4.55-33.88 6.15-33.85 7.98-33.83 9.8-33.8 11.4-33.8L11.4-33.8Q12.55-33.8 13.9-33.85 15.25-33.9 16.85-33.9L16.85-33.9Q19.65-33.9 22.35-33.52 25.05-33.15 27.35-32.15 29.65-31.15 31.4-29.33 33.15-27.5 34.13-24.68 35.1-21.85 35.1-17.75L35.1-17.75Q35.1-13.7 34.1-10.8 33.1-7.9 31.45-5.95 29.8-4 27.8-2.8 25.8-1.6 23.7-1 21.6-0.4 19.78-0.2 17.95 0 16.65 0L16.65 0Q15.3 0 13.18 0.03 11.05 0.05 8.78 0.08 6.5 0.1 4.6 0.13 2.7 0.15 1.85 0.15ZM18.25-3.35L18.25-3.35Q19.4-3.35 20.8-3.83 22.2-4.3 23.45-5.68 24.7-7.05 25.48-9.73 26.25-12.4 26.25-16.9L26.25-16.9Q26.25-20.9 25.45-23.58 24.65-26.25 23.28-27.78 21.9-29.3 20.2-29.95 18.5-30.6 16.65-30.6L16.65-30.6Q15.7-30.6 14.83-30.38 13.95-30.15 13.55-29.8L13.55-29.8 14.2-31.75 14.2-8.9Q14.2-6.75 14.55-5.53 14.9-4.3 15.78-3.83 16.65-3.35 18.25-3.35ZM38.7-33.95L38.7-33.95Q39.75-33.9 41.35-33.88 42.95-33.85 44.72-33.83 46.5-33.8 48.15-33.8 49.8-33.8 51.05-33.8L51.05-33.8 51.05-8.9Q51.05-6.75 51.4-5.53 51.75-4.3 52.62-3.83 53.5-3.35 55.1-3.35L55.1-3.35 53.5 0Q52.15 0 50.02 0.03 47.9 0.05 45.62 0.08 43.35 0.1 41.45 0.13 39.55 0.15 38.7 0.15L38.7 0.15Q38.7-0.85 38.77-1.78 38.85-2.7 39.05-3.3L39.05-3.3Q40.4-3.4 41.12-3.83 41.85-4.25 42.12-5.38 42.4-6.5 42.4-8.7L42.4-8.7 42.4-25.3Q42.4-27.4 42.12-28.45 41.85-29.5 41.12-29.93 40.4-30.35 39-30.5L39-30.5Q38.8-31.15 38.75-32.18 38.7-33.2 38.7-33.95ZM63.15-10.05L63.15-10.05Q64.55-9.9 65.72-9.47 66.9-9.05 67.5-8.45L67.5-8.45Q66.95-6.75 66.55-4.45 66.15-2.15 65.95 0.1L65.95 0.1Q64.6 0.05 62.5 0.05 60.4 0.05 58.02 0.03 55.65 0 53.5 0L53.5 0 55.1-3.35 55.8-3.35Q58-3.35 59.37-4.08 60.75-4.8 61.6-6.28 62.45-7.75 63.15-10.05ZM60.2-22.75L60.2-22.75Q60.15-21.55 60.07-20.15 60-18.75 60-17L60-17Q60-15.1 60.07-13.68 60.15-12.25 60.2-11.1L60.2-11.1Q59-11.1 58.1-11.2 57.2-11.3 56.4-11.55L56.4-11.55Q56.2-13.75 55.25-14.48 54.3-15.2 51.85-15.2L51.85-15.2 48.85-15.2 48.85-18.55 51.85-18.55Q54.5-18.55 55.37-19.35 56.25-20.15 56.3-22.2L56.3-22.2Q57.1-22.55 58.15-22.65 59.2-22.75 60.2-22.75ZM64.55-33.95L64.55-33.95Q64.6-32.75 64.75-31.15 64.9-29.55 65.1-28.03 65.3-26.5 65.6-25.3L65.6-25.3Q64.8-24.95 63.77-24.73 62.75-24.5 61.25-24.5L61.25-24.5Q61-26.2 60.32-27.58 59.65-28.95 58.2-29.73 56.75-30.5 54.05-30.5L54.05-30.5 49.1-30.5 50.65-33.8Q54.45-33.8 57.07-33.83 59.7-33.85 61.5-33.88 63.3-33.9 64.55-33.95ZM84.14 0.4L84.14 0.4Q82.5-4.05 80.77-8.35 79.05-12.65 77.34-16.75 75.64-20.85 74-24.6L74-24.6Q72.89-26.95 72.25-28.18 71.59-29.4 71.02-29.88 70.44-30.35 69.64-30.5L69.64-30.5Q69.44-31.15 69.34-32.02 69.25-32.9 69.3-33.95L69.3-33.95Q69.89-33.9 70.89-33.88 71.89-33.85 73.05-33.83 74.19-33.8 75.22-33.8 76.25-33.8 76.89-33.8L76.89-33.8Q78.19-33.8 80.42-33.83 82.64-33.85 84.8-33.95L84.8-33.95Q84.75-32.8 84.64-31.95 84.55-31.1 84.39-30.5L84.39-30.5Q83.05-30.3 82.47-29.83 81.89-29.35 82.07-28.33 82.25-27.3 83.05-25.4L83.05-25.4Q84.19-22.6 85.22-19.95 86.25-17.3 87.22-14.45 88.19-11.6 89.19-8.2L89.19-8.2 87.75-8.2Q89.19-11.5 90.37-14.28 91.55-17.05 92.64-19.9 93.75-22.75 94.89-26.1L94.89-26.1Q95.5-27.9 95.14-29.1 94.8-30.3 93.05-30.5L93.05-30.5Q92.84-31.1 92.75-31.95 92.64-32.8 92.64-33.95L92.64-33.95Q93.3-33.9 94.25-33.88 95.19-33.85 96.19-33.83 97.19-33.8 98-33.8L98-33.8Q99.25-33.8 100.69-33.85 102.15-33.9 103-33.95L103-33.95Q103-32.95 102.87-32.1 102.75-31.25 102.55-30.5L102.55-30.5Q101.19-30.2 100.32-29.05 99.44-27.9 98.39-25.25L98.39-25.25Q95.94-18.95 93.42-12.73 90.89-6.5 88.05 0.05L88.05 0.05Q87.3 0.3 86.22 0.35 85.14 0.4 84.14 0.4ZM115.54 0.15L115.54 0.15Q115.54-0.85 115.61-1.78 115.69-2.7 115.89-3.3L115.89-3.3Q117.24-3.4 117.97-3.83 118.69-4.25 118.97-5.38 119.24-6.5 119.24-8.7L119.24-8.7 119.24-25.3Q119.24-27.4 118.97-28.45 118.69-29.5 117.97-29.93 117.24-30.35 115.84-30.5L115.84-30.5Q115.69-31.15 115.61-32.18 115.54-33.2 115.54-33.95L115.54-33.95Q116.64-33.9 118.24-33.88 119.84-33.85 121.66-33.83 123.49-33.8 125.09-33.8L125.09-33.8Q126.24-33.8 127.59-33.85 128.94-33.9 130.54-33.9L130.54-33.9Q133.34-33.9 136.04-33.52 138.74-33.15 141.04-32.15 143.34-31.15 145.09-29.33 146.84-27.5 147.81-24.68 148.79-21.85 148.79-17.75L148.79-17.75Q148.79-13.7 147.79-10.8 146.79-7.9 145.14-5.95 143.49-4 141.49-2.8 139.49-1.6 137.39-1 135.29-0.4 133.47-0.2 131.64 0 130.34 0L130.34 0Q128.99 0 126.86 0.03 124.74 0.05 122.47 0.08 120.19 0.1 118.29 0.13 116.39 0.15 115.54 0.15ZM131.94-3.35L131.94-3.35Q133.09-3.35 134.49-3.83 135.89-4.3 137.14-5.68 138.39-7.05 139.16-9.73 139.94-12.4 139.94-16.9L139.94-16.9Q139.94-20.9 139.14-23.58 138.34-26.25 136.97-27.78 135.59-29.3 133.89-29.95 132.19-30.6 130.34-30.6L130.34-30.6Q129.39-30.6 128.51-30.38 127.64-30.15 127.24-29.8L127.24-29.8 127.89-31.75 127.89-8.9Q127.89-6.75 128.24-5.53 128.59-4.3 129.47-3.83 130.34-3.35 131.94-3.35ZM172.14 0.15L172.14 0.15Q172.14-0.7 172.26-1.7 172.39-2.7 172.59-3.3L172.59-3.3Q173.94-3.4 174.64-3.83 175.34-4.25 175.59-5.35 175.84-6.45 175.84-8.6L175.84-8.6 175.84-25.3Q175.84-27.4 175.59-28.45 175.34-29.5 174.64-29.93 173.94-30.35 172.54-30.5L172.54-30.5Q172.34-31.15 172.24-32.13 172.14-33.1 172.14-33.95L172.14-33.95Q172.99-33.9 174.49-33.88 175.99-33.85 177.59-33.83 179.19-33.8 180.34-33.8L180.34-33.8Q181.54-33.8 182.96-33.83 184.39-33.85 185.79-33.88 187.19-33.9 188.19-33.95L188.19-33.95Q188.19-33.05 188.14-32.2 188.09-31.35 187.79-30.5L187.79-30.5Q186.44-30.35 185.71-29.95 184.99-29.55 184.74-28.48 184.49-27.4 184.49-25.3L184.49-25.3 184.49-8.6Q184.49-6.45 184.76-5.35 185.04-4.25 185.76-3.83 186.49-3.4 187.84-3.3L187.84-3.3Q187.99-2.7 188.09-1.73 188.19-0.75 188.19 0.15L188.19 0.15Q186.99 0.05 185.01 0.03 183.04 0 180.74 0L180.74 0Q178.39 0 176.09 0.03 173.79 0.05 172.14 0.15ZM152.39 0.15L152.39 0.15Q152.39-0.7 152.51-1.7 152.64-2.7 152.79-3.3L152.79-3.3Q154.14-3.4 154.86-3.83 155.59-4.25 155.84-5.35 156.09-6.45 156.09-8.6L156.09-8.6 156.09-25.3Q156.09-27.4 155.84-28.45 155.59-29.5 154.86-29.93 154.14-30.35 152.79-30.5L152.79-30.5Q152.59-31.15 152.49-32.13 152.39-33.1 152.39-33.95L152.39-33.95Q153.24-33.9 154.71-33.88 156.19-33.85 157.81-33.83 159.44-33.8 160.59-33.8L160.59-33.8Q161.74-33.8 163.19-33.83 164.64-33.85 166.04-33.88 167.44-33.9 168.44-33.95L168.44-33.95Q168.44-33.05 168.39-32.2 168.34-31.35 168.04-30.5L168.04-30.5Q166.69-30.35 165.96-29.95 165.24-29.55 164.99-28.48 164.74-27.4 164.74-25.3L164.74-25.3 164.74-8.6Q164.74-6.45 164.99-5.35 165.24-4.25 165.99-3.83 166.74-3.4 168.04-3.3L168.04-3.3Q168.24-2.7 168.34-1.73 168.44-0.75 168.44 0.15L168.44 0.15Q167.24 0.05 165.24 0.03 163.24 0 160.94 0L160.94 0Q158.64 0 156.31 0.03 153.99 0.05 152.39 0.15ZM164.49-15.25L164.49-15.25 164.49-19.2 176.14-19.2 176.14-15.7Q174.84-15.7 173.29-15.68 171.74-15.65 170.16-15.6 168.59-15.55 167.11-15.48 165.64-15.4 164.49-15.25ZM208.99-34.1L208.99-34.1 220.29-9Q221.44-6.65 222.09-5.43 222.74-4.2 223.31-3.8 223.89-3.4 224.59-3.3L224.59-3.3Q224.79-2.65 224.89-1.78 224.99-0.9 224.99 0.15L224.99 0.15Q224.09 0.05 222.69 0.03 221.29 0 219.89 0 218.49 0 217.69 0L217.69 0Q217.09 0 216.01 0 214.94 0 213.71 0.03 212.49 0.05 211.39 0.08 210.29 0.1 209.69 0.15L209.69 0.15Q209.69-1.05 209.79-1.85 209.89-2.65 210.09-3.3L210.09-3.3Q211.84-3.65 212.16-4.48 212.49-5.3 211.69-7.15L211.69-7.15 207.19-17.4Q206.04-20.05 205.31-22.33 204.59-24.6 204.09-26.8L204.09-26.8 205.54-26.8Q204.94-24.55 204.21-22.25 203.49-19.95 202.44-17.45L202.44-17.45 198.64-7.55Q197.99-5.95 198.39-4.75 198.79-3.55 200.49-3.3L200.49-3.3Q200.69-2.6 200.79-1.75 200.89-0.9 200.89 0.15L200.89 0.15Q200.34 0.1 199.34 0.08 198.34 0.05 197.26 0.03 196.19 0 195.34 0L195.34 0Q194.09 0 192.76 0.03 191.44 0.05 190.69 0.15L190.69 0.15Q190.69-0.85 190.79-1.65 190.89-2.45 191.14-3.3L191.14-3.3Q191.99-3.45 192.59-3.93 193.19-4.4 193.76-5.45 194.34-6.5 195.14-8.45L195.14-8.45 205.69-33.85Q206.54-34.05 207.26-34.08 207.99-34.1 208.99-34.1ZM198.44-12L210.84-12 211.74-9Q208.39-9 204.76-8.9 201.14-8.8 197.69-8.45L197.69-8.45 198.44-12ZM231.23-8.6L231.23-25.3Q231.23-27.4 230.98-28.45 230.73-29.5 230.01-29.93 229.28-30.35 227.93-30.5L227.93-30.5Q227.73-31.15 227.63-32.13 227.53-33.1 227.53-33.95L227.53-33.95Q228.38-33.9 229.86-33.88 231.33-33.85 232.96-33.83 234.58-33.8 235.73-33.8L235.73-33.8Q236.88-33.8 238.33-33.83 239.78-33.85 241.18-33.88 242.58-33.9 243.58-33.95L243.58-33.95Q243.58-33.05 243.53-32.2 243.48-31.35 243.18-30.5L243.18-30.5Q241.83-30.35 241.11-29.95 240.38-29.55 240.13-28.48 239.88-27.4 239.88-25.3L239.88-25.3 239.88-8.6Q239.88-6.45 240.13-5.35 240.38-4.25 241.13-3.83 241.88-3.4 243.18-3.3L243.18-3.3Q243.38-2.7 243.48-1.73 243.58-0.75 243.58 0.15L243.58 0.15Q242.38 0.05 240.38 0.03 238.38 0 236.08 0L236.08 0Q233.78 0 231.46 0.03 229.13 0.05 227.53 0.15L227.53 0.15Q227.53-0.7 227.66-1.7 227.78-2.7 227.93-3.3L227.93-3.3Q229.28-3.4 230.01-3.83 230.73-4.25 230.98-5.35 231.23-6.45 231.23-8.6L231.23-8.6ZM247.23 0.15L247.23 0.15Q247.23-1.05 247.28-1.88 247.33-2.7 247.53-3.3L247.53-3.3Q248.88-3.4 249.6-3.83 250.33-4.25 250.63-5.35 250.93-6.45 250.93-8.6L250.93-8.6 250.93-25.3Q250.93-27.4 250.68-28.45 250.43-29.5 249.7-29.93 248.98-30.35 247.63-30.5L247.63-30.5Q247.43-31.15 247.33-32.02 247.23-32.9 247.23-33.95L247.23-33.95Q248.33-33.9 249.91-33.88 251.48-33.85 253.28-33.83 255.08-33.8 256.73-33.8 258.38-33.8 259.58-33.8L259.58-33.8 259.58-9.2Q259.58-7.05 260.06-5.83 260.53-4.6 261.65-4.03 262.78-3.45 264.73-3.3L264.73-3.3Q265.03-2.6 265.08-1.68 265.13-0.75 265.13 0.15L265.13 0.15Q264.23 0.1 262.75 0.08 261.28 0.05 259.63 0.03 257.98 0 256.48 0L256.48 0Q254.03 0 251.41 0.03 248.78 0.05 247.23 0.15ZM269.93-9.55L269.93-9.55Q268.73-9.55 267.81-9.63 266.88-9.7 266.13-10L266.13-10Q265.93-12.15 264.98-12.9 264.03-13.65 261.58-13.65L261.58-13.65 258.53-13.65 258.53-17 261.58-17Q264.23-17 265.11-17.8 265.98-18.6 266.03-20.65L266.03-20.65Q266.83-21 267.88-21.1 268.93-21.2 269.93-21.2L269.93-21.2Q269.88-20 269.81-18.6 269.73-17.2 269.73-15.45L269.73-15.45Q269.73-13.55 269.81-12.13 269.88-10.7 269.93-9.55ZM270.13-24.5L270.13-24.5Q269.88-26.2 269.2-27.58 268.53-28.95 267.06-29.73 265.58-30.5 262.88-30.5L262.88-30.5 257.58-30.5 259.13-33.8Q263.13-33.8 265.83-33.83 268.53-33.85 270.36-33.88 272.18-33.9 273.43-33.95L273.43-33.95Q273.48-32.75 273.61-31.15 273.73-29.55 273.95-28.03 274.18-26.5 274.48-25.3L274.48-25.3Q273.63-24.95 272.63-24.73 271.63-24.5 270.13-24.5Z" opacity="1" transform="matrix(1,0,0,1,0,0)" fill="#000000" class="wordmark-text-0" data-fill-palette-color="primary" id="text-0"></path></svg></g></svg></g><g transform="matrix(1,0,0,1,75.54432,61.86246430750046)"><svg viewBox="0 0 244.43135999999998 21.57880634787178" height="21.57880634787178" width="244.43135999999998"><g transform="matrix(1,0,0,1,0,0)"><svg width="244.43135999999998" viewBox="2.37 -36.04 511.02 45.12" height="21.57880634787178" data-palette-color="#ffffff"><path d="M27.22 0L22.88 0 22.88-12.13 8.86-12.13 2.37-18.63 2.37-25.93 8.86-32.4 12.52-32.4 12.52-20.9 27.42-20.9 33.69-14.4 33.69-6.47 27.22 0ZM22.88-26.56L14.23-26.56 14.23-32.4 27.2-32.4 32.81-26.76 32.81-23.32 22.88-23.32 22.88-26.56ZM2.37-6.47L2.37-9.72 13.16-9.72 13.16-5.86 21.17-5.86 21.17 0 7.81 0 2.37-6.47ZM67.5-19.46L67.5-6.47 61.03 0 53.81 0 53.81-6.05 56.49-6.05 56.49-19.46 53.81-19.46 53.81-25.93 61.03-25.93 67.5-19.46ZM49.29-19.46L49.29-6.05 52.1-6.05 52.1 0 44.85 0 38.38-6.47 38.38-19.46 44.85-25.93 52.1-25.93 52.1-19.46 49.29-19.46ZM91.94-29.35L84.13-29.35 84.13 0 73.31 0 73.31-19.46 70.75-19.46 70.75-25.93 73.31-25.93 73.31-29.76 79.83-35.82 91.94-35.82 91.94-29.35ZM91.94-19.46L85.76-19.46 85.83-25.93 91.94-25.93 91.94-19.46ZM105.58-32.4L105.58-6.47 112.71-6.47 112.71 0 101.29 0 94.79-6.47 94.79-19.46 92.64-19.46 92.64-25.93 94.79-25.93 94.79-28.74 105.58-32.4ZM113.1-19.46L107.29-19.46 107.29-25.93 113.1-25.93 113.1-19.46ZM123.26 0L113.95-25.93 124.26-25.93 128.48-12.43 131.48-21.78 135.37-9.84 132.29 0.02 132.27 0 123.26 0ZM140.37 0L131.63-25.93 141.81-25.93 150.16 0 140.37 0ZM159.71-25.93L151.24-1.61 146.69-15.58 149.6-25.93 159.71-25.93ZM189.54 0L178.99 0 178.99-19.46 163.63-19.46 163.63-22.68 166.88-25.93 183.07-25.93 189.54-19.46 189.54 0ZM165.81-15.09L177.28-15.09 177.28-10.6 171.72-10.6 171.72-6.05 177.28-6.05 177.28-3.2 174.06 0 165.81 0 161.46-4.27 161.46-10.77 165.81-15.09ZM211.51-13.16L211.51-19.46 206.92-19.46 206.92-22.29 210.53-25.93 217.07-25.93 222.32-19.87 222.32-13.16 211.51-13.16ZM205.19 0L194.39 0 194.39-25.93 205.19-25.93 205.19 0ZM236.21-25.93L236.21 0 231.89 0 225.42-6.47 225.42-19.46 231.89-25.93 236.21-25.93ZM253.55-10.4L237.92-10.4 237.92-14.92 243.61-14.92 243.61-19.46 237.92-19.46 237.92-25.93 247.08-25.93 253.55-19.46 253.55-10.4ZM249.2 0L237.92 0 237.92-6.05 252.42-6.05 252.42-3.25 249.2 0ZM292.51-13.31L282.18-13.31 282.18 0 271.39 0 271.39-32.4 282.18-32.4 282.18-19.56 292.51-19.56 292.51-13.31ZM290.6-26.12L283.89-26.12 283.89-32.4 300.76-32.4 300.76-23.02 290.6-23.02 290.6-26.12ZM300.76 0L283.89 0 283.89-6.47 289.97-6.47 289.97-9.72 300.76-9.72 300.76 0ZM316.5 0L305.61 0 305.61-25.93 316.5-25.93 316.5 0ZM322.9 0L322.9-19.46 318.26-19.46 318.26-22.29 321.87-25.93 327.88-25.93 333.72-20.09 333.72 0 322.9 0ZM355.78 3.42L355.78-19.46 351-19.46 351-25.93 360.1-25.93 366.57-19.46 366.57 2.56 360.1 9.08 345.87 9.08 342.62 5.81 342.62 3.42 355.78 3.42ZM349.29-6.05L354.07-6.05 354.07-3.2 350.85 0 344.97 0 338.5-6.47 338.5-19.46 344.97-25.93 349.29-25.93 349.29-6.05ZM371.45 0L371.45-25.93 382.27-25.93 382.27 0 371.45 0ZM371.45-29.15L371.45-36.04 382.27-36.04 382.27-29.15 371.45-29.15ZM398.26 0L387.37 0 387.37-25.93 398.26-25.93 398.26 0ZM404.66 0L404.66-19.46 400.02-19.46 400.02-22.29 403.63-25.93 409.64-25.93 415.47-20.09 415.47 0 404.66 0ZM431.04-25.93L431.04 0 426.72 0 420.25-6.47 420.25-19.46 426.72-25.93 431.04-25.93ZM448.38-10.4L432.75-10.4 432.75-14.92 438.44-14.92 438.44-19.46 432.75-19.46 432.75-25.93 441.91-25.93 448.38-19.46 448.38-10.4ZM444.03 0L432.75 0 432.75-6.05 447.26-6.05 447.26-3.25 444.03 0ZM463.54-25.93L463.54 0 459.22 0 452.75-6.47 452.75-19.46 459.22-25.93 463.54-25.93ZM480.87-10.4L465.25-10.4 465.25-14.92 470.93-14.92 470.93-19.46 465.25-19.46 465.25-25.93 474.4-25.93 480.87-19.46 480.87-10.4ZM476.53 0L465.25 0 465.25-6.05 479.75-6.05 479.75-3.25 476.53 0ZM502.57-13.16L502.57-19.46 497.98-19.46 497.98-22.29 501.6-25.93 508.14-25.93 513.39-19.87 513.39-13.16 502.57-13.16ZM496.25 0L485.46 0 485.46-25.93 496.25-25.93 496.25 0Z" opacity="1" transform="matrix(1,0,0,1,0,0)" fill="#000000" class="slogan-text-1" data-fill-palette-color="secondary" id="text-1"></path></svg></g></svg></g></svg></g></svg></g><g transform="matrix(1,0,0,1,132.61118618026907,0)"><svg viewBox="0 0 132.27522763946178 115.31583604572444" height="115.31583604572444" width="132.27522763946178"><g><svg xmlns="http://www.w3.org/2000/svg" xmlns:xlink="http://www.w3.org/1999/xlink" version="1.1" x="7.999999999999993" y="0" viewBox="0.7534958055897398 0.8368608799048752 46.64803392980818 46.263139120095126" enable-background="new 0 0 48 48" xml:space="preserve" height="115.31583604572444" width="116.27522763946179" class="icon-icon-0" data-fill-palette-color="accent" id="icon-0"><g fill="#ffffff" data-fill-palette-color="accent"><g fill="#ffffff" data-fill-palette-color="accent"><g fill="#ffffff" data-fill-palette-color="accent"><path fill="#000000" d="M0.9 2.4C1.3 11.2 1.3 20.1 1.3 29c0 2.1-0.8 11.5 2.9 11.7 8.7 0.6 17.6 0.1 26.3 0.1 2.4 0 14.7 1.5 15.6-1.8 2.1-7.3 1.1-16.1 0.8-23.6-0.2-4.2-0.4-8.5-0.6-12.7 0-0.9-0.4-1.1-1.2-1.3-3.4-1-8.2-0.1-11.7-0.2-4.5-0.1-9-0.1-13.5-0.2C15.4 1.1 10.9 1 6.4 1c-1.7 0-4.2-0.7-5.5 0.8C0.4 2.3 1.3 3.2 1.8 2.6c1.1-1.2 7-0.4 8.5-0.3 3.2 0 6.4 0.1 9.6 0.1 6.4 0.1 12.9 0.2 19.3 0.3 1.3 0 2.6 0 3.9 0.1 2.8 0 2.2 3.9 2.3 5.5 0.2 3.1 0.3 6.1 0.4 9.2 0.3 6.2 0.3 12.5-0.3 18.7-0.5 5.4-15.4 3.6-18.8 3.6-6.5 0-13 0-19.4 0-5.1 0-4.4-4.7-4.6-8.6-0.1-3.2 0-6.4 0-9.6 0-6.3-0.2-12.7-0.4-19C2.2 1.5 0.9 1.5 0.9 2.4L0.9 2.4z" data-fill-palette-color="accent"></path></g></g><g fill="#ffffff" data-fill-palette-color="accent"><g fill="#ffffff" data-fill-palette-color="accent"><path fill="#000000" d="M17.2 10.2c-1.6 1.4-3.8 2.1-5.5 3.3-1 0.7-2.9 2.1-3.3 3.4-0.2 0.9 0.9 1.4 1.5 1.8 2.4 1.5 4.5 3.3 6.4 5.3 0.6 0.6 1.4-0.3 0.9-0.9-1.2-1.2-2.4-2.4-3.7-3.5-0.5-0.4-3.8-2.4-3.3-3.1 2.2-2.6 5.5-3.4 8-5.6C18.7 10.5 17.8 9.6 17.2 10.2L17.2 10.2z" data-fill-palette-color="accent"></path></g></g><g fill="#ffffff" data-fill-palette-color="accent"><g fill="#ffffff" data-fill-palette-color="accent"><path fill="#000000" d="M27.2 6.7c-2.7 7.2-5.2 14.5-7.6 21.9-0.3 0.8 1 1.1 1.2 0.3 2.4-7.3 4.9-14.6 7.6-21.9C28.7 6.3 27.5 5.9 27.2 6.7L27.2 6.7z" data-fill-palette-color="accent"></path></g></g><g fill="#ffffff" data-fill-palette-color="accent"><g fill="#ffffff" data-fill-palette-color="accent"><path fill="#000000" d="M29.3 11.6c1.5 1.1 2.9 2.3 4.4 3.4 0.9 0.7 1.8 1.4 2.6 2.1 1.3 1 0.7 0.9-0.4 1.7-2.4 1.7-4.3 3.9-6 6.3-0.5 0.7 0.6 1.3 1.1 0.6 1.4-2 3.1-3.8 5-5.4 0.4-0.3 2.7-1.5 2.7-2.4 0-1.2-1.5-1.9-2.3-2.5-2.1-1.6-4.1-3.2-6.2-4.8C29.5 10.2 28.6 11.1 29.3 11.6L29.3 11.6z" data-fill-palette-color="accent"></path></g></g><g fill="#ffffff" data-fill-palette-color="accent"><g fill="#ffffff" data-fill-palette-color="accent"><path fill="#000000" d="M2.3 31.9c14.8 0.3 29.5 0.2 44.3-0.3 0.8 0 0.8-1.3 0-1.3-14.8 0.6-29.5 0.7-44.3 0.3C1.5 30.6 1.5 31.9 2.3 31.9L2.3 31.9z" data-fill-palette-color="accent"></path></g></g><g fill="#ffffff" data-fill-palette-color="accent"><g fill="#ffffff" data-fill-palette-color="accent"><path fill="#000000" d="M21.1 36.6c1.1 0 2.2 0 3.3 0 0.8 0 0.8-1.3 0-1.3-1.1 0-2.2 0-3.3 0C20.3 35.4 20.3 36.6 21.1 36.6L21.1 36.6z" data-fill-palette-color="accent"></path></g></g><g fill="#ffffff" data-fill-palette-color="accent"><g fill="#ffffff" data-fill-palette-color="accent"><path fill="#000000" d="M23.8 40.3c-0.3 1.8-0.4 3.6-0.2 5.5 0.1 0.8 1.3 0.8 1.3 0-0.2-1.7-0.2-3.4 0.1-5.1C25.2 39.8 24 39.5 23.8 40.3L23.8 40.3z" data-fill-palette-color="accent"></path></g></g><g fill="#ffffff" data-fill-palette-color="accent"><g fill="#ffffff" data-fill-palette-color="accent"><path fill="#000000" d="M15.1 47.1c6.9 0 13.8 0 20.6 0 0.8 0 0.8-1.3 0-1.3-6.9 0-13.8 0-20.6 0C14.3 45.8 14.3 47.1 15.1 47.1L15.1 47.1z" data-fill-palette-color="accent"></path></g></g></g></svg></g></svg></g><g><rect width="56.078066180269104" height="4.513331602032203" y="109.80250444369224" x="264.8864138197308" fill="#000000" data-fill-palette-color="secondary"></rect><rect width="56.078066180269104" height="4.513331602032203" y="109.80250444369224" x="76.53311999999997" fill="#000000" data-fill-palette-color="secondary"></rect></g></svg></g><defs></defs></svg><rect width="395.52" height="225.7715887469971" fill="none" stroke="none" visibility="hidden"></rect></g></svg></g></svg>