<svg xmlns="http://www.w3.org/2000/svg" version="1.1" xmlns:xlink="http://www.w3.org/1999/xlink" xmlns:svgjs="http://svgjs.dev/svgjs" width="1000" height="750" viewBox="0 0 1000 750"><rect width="1000" height="750" fill="#000000"></rect><g transform="matrix(0.834,0,0,0.834,82.49454645217793,250.21261892905815)"><svg viewBox="0 0 396 119" data-background-color="#282634" preserveAspectRatio="xMidYMid meet" height="300" width="1000" xmlns="http://www.w3.org/2000/svg" xmlns:xlink="http://www.w3.org/1999/xlink"><g id="tight-bounds" transform="matrix(1,0,0,1,0.23999952630401822,-0.14868766010360446)"><svg viewBox="0 0 395.52 119.29731756018909" height="119.29731756018909" width="395.52"><g><svg viewBox="0 0 618.6327499822132 186.59290965756765" height="119.29731756018909" width="395.52"><g transform="matrix(1,0,0,1,223.11274998221324,54.62263757857033)"><svg viewBox="0 0 395.52 77.34763450042699" height="77.34763450042699" width="395.52"><g id="textblocktransform"><svg viewBox="0 0 395.52 77.34763450042699" height="77.34763450042699" width="395.52" id="textblock"><g><svg viewBox="0 0 395.52 77.34763450042699" height="77.34763450042699" width="395.52"><g transform="matrix(1,0,0,1,0,0)"><svg width="395.52" viewBox="3.299999952316284 -34 175.63999938964844 34.349998474121094" height="77.34763450042699" data-palette-color="#dcdcdc"><g class="wordmark-text-0" data-fill-palette-color="primary" id="text-0"><path d="M21.5-32.45L21.5-32.45 21.5-28.2Q18.45-30.2 14.2-30.2L14.2-30.2Q11.15-30.2 9.35-28.78 7.55-27.35 7.55-25.05L7.55-25.05Q7.55-23.85 8.03-22.9 8.5-21.95 9.7-21.13 10.9-20.3 11.75-19.88 12.6-19.45 14.4-18.65L14.4-18.65Q16.1-17.9 17-17.48 17.9-17.05 19.33-16.13 20.75-15.2 21.48-14.33 22.2-13.45 22.78-12.03 23.35-10.6 23.35-8.95L23.35-8.95Q23.35-4.5 20.3-2.08 17.25 0.35 12.45 0.35L12.45 0.35Q7.15 0.35 3.45-1.8L3.45-1.8 3.45-6.15Q7.1-3.4 12.35-3.4L12.35-3.4Q15.5-3.4 17.3-4.8 19.1-6.2 19.1-8.85L19.1-8.85Q19.1-9.95 18.68-10.83 18.25-11.7 17.28-12.43 16.3-13.15 15.43-13.63 14.55-14.1 13.05-14.8L13.05-14.8Q12.75-14.95 12.15-15.2L12.15-15.2Q10-16.15 8.88-16.75 7.75-17.35 6.23-18.53 4.7-19.7 4-21.25 3.3-22.8 3.3-24.85L3.3-24.85Q3.3-29.15 6.38-31.58 9.45-34 14.1-34L14.1-34Q18.45-34 21.5-32.45ZM34.1-15.05L34.1-3.55 48.85-3.55 48.85 0 30.05 0 30.05-33.7 48.6-33.7 48.6-30.15 34.1-30.15 34.1-18.6 46.9-18.6 46.9-15.05 34.1-15.05ZM58.8 0L54.75 0 57.2-33.7 62.35-33.7 66.8-21.4 72.2-5.7Q75.09-13.9 77.9-21.4L77.9-21.4 82.55-33.7 87.7-33.7 90.65 0 86.59 0 85.45-13.3 84.25-28.25Q81.59-20.85 78.8-13.3L78.8-13.3 74.09-0.75 70.25-0.75 65.8-13.3 60.7-27.95Q60.7-26 59.75-13.3L59.75-13.3 58.8 0ZM115.59-32.45L115.59-32.45 115.59-28.2Q112.54-30.2 108.29-30.2L108.29-30.2Q105.24-30.2 103.44-28.78 101.64-27.35 101.64-25.05L101.64-25.05Q101.64-23.85 102.12-22.9 102.59-21.95 103.79-21.13 104.99-20.3 105.84-19.88 106.69-19.45 108.49-18.65L108.49-18.65Q110.19-17.9 111.09-17.48 111.99-17.05 113.42-16.13 114.84-15.2 115.57-14.33 116.29-13.45 116.87-12.03 117.44-10.6 117.44-8.95L117.44-8.95Q117.44-4.5 114.39-2.08 111.34 0.35 106.54 0.35L106.54 0.35Q101.24 0.35 97.54-1.8L97.54-1.8 97.54-6.15Q101.19-3.4 106.44-3.4L106.44-3.4Q109.59-3.4 111.39-4.8 113.19-6.2 113.19-8.85L113.19-8.85Q113.19-9.95 112.77-10.83 112.34-11.7 111.37-12.43 110.39-13.15 109.52-13.63 108.64-14.1 107.14-14.8L107.14-14.8Q106.84-14.95 106.24-15.2L106.24-15.2Q104.09-16.15 102.97-16.75 101.84-17.35 100.32-18.53 98.79-19.7 98.09-21.25 97.39-22.8 97.39-24.85L97.39-24.85Q97.39-29.15 100.47-31.58 103.54-34 108.19-34L108.19-34Q112.54-34 115.59-32.45ZM131.19-14.2L130.54-12.3 142.49-12.3 141.84-14.25 136.59-30.45Q135.99-28.3 131.19-14.2L131.19-14.2ZM150.94 0L146.59 0 143.64-8.85 129.39-8.85 126.39 0 122.04 0 133.79-33.7 139.39-33.7 150.94 0ZM165.24-30.2L160.59-30.2 160.59-16.75 165.69-16.75Q169.14-16.75 170.96-18.63 172.79-20.5 172.79-23.45L172.79-23.45Q172.79-30.2 165.24-30.2L165.24-30.2ZM170.09-13.95L178.94 0 174.09 0 165.84-13.3 165.44-13.3 160.59-13.3 160.59 0 156.54 0 156.54-33.7 164.99-33.7Q170.84-33.7 173.86-30.95 176.89-28.2 176.89-23.35L176.89-23.35Q176.79-19.85 175.04-17.4 173.29-14.95 170.09-13.95L170.09-13.95Z" fill="#ffffff" data-fill-palette-color="primary"></path></g></svg></g></svg></g></svg></g></svg></g><g><svg viewBox="0 0 186.59290965756765 186.59290965756765" height="186.59290965756765" width="186.59290965756765"><g><svg></svg></g><g id="icon-0"><svg viewBox="0 0 186.59290965756765 186.59290965756765" height="186.59290965756765" width="186.59290965756765"><g><path d="M0 93.296c0-51.526 41.77-93.296 93.296-93.296 51.526 0 93.296 41.77 93.297 93.296 0 51.526-41.77 93.296-93.297 93.297-51.526 0-93.296-41.77-93.296-93.297zM93.296 179.618c47.674 0 86.321-38.647 86.322-86.322 0-47.674-38.647-86.321-86.322-86.321-47.674 0-86.321 38.647-86.321 86.321 0 47.674 38.647 86.321 86.321 86.322z" data-fill-palette-color="accent" fill="#ffffff" stroke="transparent"></path></g><g transform="matrix(1,0,0,1,41.99109747506055,40.90012707582759)"><svg viewBox="0 0 102.61071470744655 104.79265550591246" height="104.79265550591246" width="102.61071470744655"><g><svg xmlns="http://www.w3.org/2000/svg" xmlns:xlink="http://www.w3.org/1999/xlink" version="1.1" x="0" y="0" viewBox="2.5 2.0002899169921875 47 47.999420166015625" enable-background="new 0 0 52 52" xml:space="preserve" height="104.79265550591246" width="102.61071470744655" class="icon-s-0" data-fill-palette-color="accent" id="s-0"><g fill="#dcdcdc" data-fill-palette-color="accent"><g fill="#dcdcdc" data-fill-palette-color="accent"><polygon points="37.5,49.9997101 14.5,49.9997101 14.5,14.4997101 15.5,14.4997101 15.5,48.9997101 36.5,48.9997101     36.5,14.4997101 37.5,14.4997101   " fill="#ffffff" data-fill-palette-color="accent"></polygon></g><g fill="#dcdcdc" data-fill-palette-color="accent"><g fill="#dcdcdc" data-fill-palette-color="accent"><path d="M13.083 15.995c-0.474 0-0.94-0.223-1.23-0.633l-1.639-2.326c-0.24-0.341-0.328-0.77-0.241-1.176 0.087-0.408 0.343-0.763 0.7-0.977l14.572-8.672c0.463-0.274 1.039-0.281 1.506-0.017l14.58 8.245c0.355 0.201 0.617 0.543 0.717 0.941 0.102 0.402 0.035 0.816-0.187 1.167l-1.714 2.708c-0.439 0.693-1.336 0.906-2.037 0.486H38.109L26.257 8.66c-0.159-0.095-0.356-0.094-0.512 0l-11.895 7.124C13.611 15.927 13.346 15.995 13.083 15.995zM26.013 3c-0.089 0-0.178 0.023-0.256 0.07l-14.572 8.672c-0.121 0.072-0.204 0.188-0.234 0.326s-0.001 0.277 0.08 0.393l1.639 2.324c0.151 0.213 0.442 0.274 0.666 0.141l11.894-7.124c0.475-0.285 1.063-0.285 1.541-0.001l11.852 7.082h-0.001c0.237 0.139 0.535 0.07 0.68-0.163l1.714-2.708c0.074-0.117 0.097-0.255 0.062-0.389-0.033-0.134-0.118-0.246-0.239-0.313L26.259 3.064C26.183 3.021 26.098 3 26.013 3z" fill="#ffffff" data-fill-palette-color="accent"></path></g></g><g fill="#dcdcdc" data-fill-palette-color="accent"><path d="M49.5 50h-13v-25h13V50zM37.5 49h11v-23h-11V49z" fill="#ffffff" data-fill-palette-color="accent"></path></g><g fill="#dcdcdc" data-fill-palette-color="accent"><path d="M15.5 50h-13v-25h13V50zM3.5 49h11v-23h-11V49z" fill="#ffffff" data-fill-palette-color="accent"></path></g><g fill="#dcdcdc" data-fill-palette-color="accent"><rect x="21" y="17.9997101" width="2" height="1" fill="#ffffff" data-fill-palette-color="accent"></rect></g><g fill="#dcdcdc" data-fill-palette-color="accent"><rect x="29" y="17.9997101" width="2" height="1" fill="#ffffff" data-fill-palette-color="accent"></rect></g><g fill="#dcdcdc" data-fill-palette-color="accent"><rect x="21" y="23.9997101" width="2" height="1" fill="#ffffff" data-fill-palette-color="accent"></rect></g><g fill="#dcdcdc" data-fill-palette-color="accent"><rect x="29" y="23.9997101" width="2" height="1" fill="#ffffff" data-fill-palette-color="accent"></rect></g><g fill="#dcdcdc" data-fill-palette-color="accent"><rect x="21" y="29.9997101" width="2" height="1" fill="#ffffff" data-fill-palette-color="accent"></rect></g><g fill="#dcdcdc" data-fill-palette-color="accent"><rect x="29" y="29.9997101" width="2" height="1" fill="#ffffff" data-fill-palette-color="accent"></rect></g><g fill="#dcdcdc" data-fill-palette-color="accent"><rect x="21" y="35.9997101" width="2" height="1" fill="#ffffff" data-fill-palette-color="accent"></rect></g><g fill="#dcdcdc" data-fill-palette-color="accent"><rect x="29" y="35.9997101" width="2" height="1" fill="#ffffff" data-fill-palette-color="accent"></rect></g><g fill="#dcdcdc" data-fill-palette-color="accent"><rect x="21" y="41.9997101" width="2" height="1" fill="#ffffff" data-fill-palette-color="accent"></rect></g><g fill="#dcdcdc" data-fill-palette-color="accent"><rect x="29" y="41.9997101" width="2" height="1" fill="#ffffff" data-fill-palette-color="accent"></rect></g><g fill="#dcdcdc" data-fill-palette-color="accent"><g fill="#dcdcdc" data-fill-palette-color="accent"><rect x="42" y="30.9997101" width="2" height="1" fill="#ffffff" data-fill-palette-color="accent"></rect></g><g fill="#dcdcdc" data-fill-palette-color="accent"><rect x="42" y="36.9997101" width="2" height="1" fill="#ffffff" data-fill-palette-color="accent"></rect></g><g fill="#dcdcdc" data-fill-palette-color="accent"><rect x="42" y="42.9997101" width="2" height="1" fill="#ffffff" data-fill-palette-color="accent"></rect></g></g><g fill="#dcdcdc" data-fill-palette-color="accent"><g fill="#dcdcdc" data-fill-palette-color="accent"><rect x="8" y="30.9997101" width="2" height="1" fill="#ffffff" data-fill-palette-color="accent"></rect></g><g fill="#dcdcdc" data-fill-palette-color="accent"><rect x="8" y="36.9997101" width="2" height="1" fill="#ffffff" data-fill-palette-color="accent"></rect></g><g fill="#dcdcdc" data-fill-palette-color="accent"><rect x="8" y="42.9997101" width="2" height="1" fill="#ffffff" data-fill-palette-color="accent"></rect></g></g></g></svg></g></svg></g></svg></g></svg></g></svg></g><defs></defs></svg><rect width="395.52" height="119.29731756018909" fill="none" stroke="none" visibility="hidden"></rect></g></svg></g></svg>